<?xml version="1.0" standalone="no"?>
<!DOCTYPE svg PUBLIC "-//W3C//DTD SVG 20010904//EN"
 "http://www.w3.org/TR/2001/REC-SVG-20010904/DTD/svg10.dtd">
<svg version="1.0" xmlns="http://www.w3.org/2000/svg"
 width="95.000000pt" height="130.000000pt" viewBox="0 0 95.000000 130.000000"
 preserveAspectRatio="xMidYMid meet">

<g transform="translate(0.000000,130.000000) scale(0.100000,-0.100000)"
fill="#000000" stroke="none">
<path d="M470 1259 c-85 -16 -182 -74 -267 -156 -90 -89 -121 -141 -158 -268
-63 -215 -37 -440 70 -610 48 -77 93 -115 180 -156 100 -46 175 -62 290 -63
99 0 165 20 240 72 51 36 54 57 53 337 l-2 210 33 3 c19 2 31 8 28 15 -9 27
-297 18 -297 -9 0 -9 12 -14 35 -14 l35 0 0 -280 c0 -330 11 -306 -135 -304
-73 1 -107 7 -181 32 -51 17 -115 45 -143 62 l-50 31 4 377 c2 207 4 413 4
458 l1 81 75 55 c133 100 263 125 410 80 89 -28 135 -55 135 -83 0 -11 5 -30
11 -41 9 -17 13 -18 20 -7 11 17 10 137 -1 164 -7 19 -9 18 -19 -8 -6 -16 -11
-33 -11 -38 0 -12 0 -12 -66 17 -64 28 -171 54 -219 53 -16 -1 -50 -5 -75 -10z
m-298 -789 l-7 -265 -36 65 c-65 116 -83 188 -82 330 0 168 37 307 105 403
l23 32 2 -150 c2 -82 0 -269 -5 -415z m659 150 c18 0 19 -10 19 -238 0 -235 0
-239 -22 -259 -29 -26 -78 -57 -82 -52 -2 2 -6 126 -9 276 l-7 272 28 4 c15 2
33 2 40 0 8 -1 22 -3 33 -3z"/>
</g>
</svg>
